<svg width="155" height="35" xmlns="http://www.w3.org/2000/svg" viewBox="0 0 155.39 35.11"><path d="M43.1,15.35c-.02.23-.03.54-.04.95,0,.4-.01.82-.01,1.25s0,.85.01,1.26c0,.41.02.73.04.96.03.4.11.79.24,1.16.12.37.32.69.58.97.26.28.59.5,1,.67.4.17.9.25,1.5.25s1.08-.07,1.47-.21c.38-.14.7-.31.95-.51.24-.2.43-.42.56-.67.13-.24.23-.47.3-.68.09-.28.18-.48.29-.59.11-.11.31-.17.6-.17h3.44c.16,0,.29.06.41.17.11.11.17.25.17.41-.02.89-.24,1.73-.66,2.52s-1,1.47-1.73,2.05c-.74.58-1.6,1.04-2.59,1.38-.99.34-2.06.51-3.22.51-1.26,0-2.38-.19-3.37-.56-.99-.38-1.83-.89-2.53-1.54-.7-.65-1.24-1.4-1.61-2.27-.38-.87-.59-1.78-.64-2.74-.04-.72-.05-1.49-.05-2.31s.02-1.61.05-2.36c.03-.96.24-1.88.63-2.74.38-.87.92-1.62,1.61-2.27.69-.65,1.54-1.16,2.53-1.54,1-.38,2.13-.56,3.39-.56,1.15,0,2.23.17,3.22.51.99.34,1.85.8,2.59,1.38.74.58,1.31,1.26,1.73,2.05s.64,1.63.66,2.52c0,.16-.06.29-.17.41s-.25.17-.41.17h-3.44c-.3,0-.5-.06-.6-.17-.1-.11-.2-.31-.29-.59-.07-.21-.17-.44-.3-.68-.13-.24-.32-.47-.56-.67-.25-.2-.56-.37-.95-.51-.39-.14-.88-.21-1.47-.21s-1.09.08-1.5.25c-.4.17-.74.39-1,.67-.26.28-.46.6-.58.97-.12.37-.2.75-.24,1.16Z" fill="#0c193d" stroke-width="0"/><path d="M66.7,8.37c.35,0,.62.1.8.29.18.19.31.39.38.58l5.72,16.54c.07.18.1.31.1.39,0,.16-.06.29-.17.41-.11.11-.25.17-.41.17h-3.31c-.35,0-.6-.07-.75-.22-.15-.15-.24-.29-.28-.43l-.74-2.18h-6.98l-.73,2.18c-.04.14-.13.28-.28.43-.15.15-.4.22-.75.22h-3.31c-.16,0-.29-.06-.41-.17-.11-.11-.17-.25-.17-.41,0-.09.03-.22.11-.39l5.72-16.54c.07-.19.2-.38.38-.58.18-.19.45-.29.8-.29h4.25ZM62.45,19.84h4.25l-2.13-6.3-2.13,6.3Z" fill="#0c193d" stroke-width="0"/><path d="M83.66,8.37c1.16,0,2.19.12,3.1.37.91.25,1.68.61,2.32,1.1.64.49,1.13,1.12,1.47,1.88.34.76.51,1.65.51,2.66,0,1.31-.27,2.4-.81,3.27-.54.87-1.31,1.53-2.31,1.98l3.25,6.25c.05.11.08.2.08.29,0,.16-.06.29-.17.41s-.25.17-.41.17h-3.57c-.35,0-.6-.08-.75-.24s-.27-.32-.35-.47l-2.91-5.62h-2.42v5.62c0,.19-.07.36-.21.5-.14.14-.31.21-.5.21h-3.44c-.19,0-.36-.07-.5-.21-.14-.14-.21-.31-.21-.5V9.07c0-.19.07-.36.21-.5.14-.14.31-.21.5-.21h7.11ZM80.69,16.32h2.97c.74,0,1.34-.14,1.82-.42.48-.28.72-.79.72-1.52s-.24-1.24-.72-1.52c-.48-.28-1.09-.42-1.82-.42h-2.97v3.89Z" fill="#0c193d" stroke-width="0"/><path d="M107.23,22.54c.19,0,.36.07.5.21.14.14.21.31.21.5v2.78c0,.19-.07.36-.21.5-.14.14-.31.21-.5.21h-12.44c-.19,0-.36-.07-.5-.21-.14-.14-.21-.31-.21-.5V9.07c0-.19.07-.36.21-.5.14-.14.31-.21.5-.21h12.23c.19,0,.36.07.5.21.14.14.21.31.21.5v2.78c0,.19-.07.36-.21.5s-.31.21-.5.21h-8.09v2.84h7.51c.19,0,.36.07.5.21.14.14.21.31.21.5v2.78c0,.19-.07.36-.21.5-.14.14-.31.21-.5.21h-7.51v2.94h8.3Z" fill="#0c193d" stroke-width="0"/><path d="M122.9,26.74c-.3,0-.54-.08-.72-.24s-.3-.28-.35-.37l-6.01-8.98v8.87c0,.19-.07.36-.21.5-.14.14-.31.21-.5.21h-3.44c-.19,0-.36-.07-.5-.21-.14-.14-.21-.31-.21-.5V9.07c0-.19.07-.36.21-.5.14-.14.31-.21.5-.21h2.73c.3,0,.54.08.72.24.18.16.3.28.35.37l6.01,8.98v-8.87c0-.19.07-.36.21-.5.14-.14.31-.21.5-.21h3.44c.19,0,.36.07.5.21s.21.31.21.5v16.96c0,.19-.07.36-.21.5-.14.14-.31.21-.5.21h-2.73Z" fill="#0c193d" stroke-width="0"/><path d="M130.73,26.74c-.19,0-.36-.07-.5-.21-.14-.14-.21-.31-.21-.5V9.07c0-.19.07-.36.21-.5.14-.14.31-.21.5-.21h3.44c.19,0,.36.07.5.21.14.14.21.31.21.5v16.96c0,.19-.07.36-.21.5-.14.14-.31.21-.5.21h-3.44Z" fill="#0c193d" stroke-width="0"/><path d="M146,21.41l-3.36,4.73c-.1.16-.22.3-.35.42-.13.12-.37.18-.72.18h-3.99c-.16,0-.29-.06-.41-.17-.11-.11-.17-.25-.17-.41,0-.04,0-.07.01-.12,0-.04.03-.1.07-.17l6.06-8.48-5.8-8.16c-.05-.11-.08-.2-.08-.29,0-.16.06-.29.17-.41.11-.11.25-.17.41-.17h3.96c.35,0,.6.09.76.26.16.18.27.31.34.39l3.18,4.44,3.07-4.44c.07-.09.18-.22.34-.39.16-.17.41-.26.76-.26h4.02c.16,0,.29.06.41.17.11.11.17.25.17.41,0,.09-.03.18-.08.29l-5.83,8.27,6.01,8.37c.03.07.06.13.07.17,0,.04.01.08.01.12,0,.16-.06.29-.17.41s-.25.17-.41.17h-3.99c-.35,0-.59-.06-.72-.18-.13-.12-.25-.26-.35-.42l-3.39-4.73Z" fill="#0c193d" stroke-width="0"/><path d="M31.4,2.7v16.55c0,8.57-6.97,15.54-15.54,15.54S.32,27.82.32,19.25V2.7h10.47v-.84c0-.84.68-1.52,1.52-1.52.42,0,.8.17,1.07.45s.45.66.45,1.07v6.08c0,.84-.68,1.52-1.52,1.52s-1.52-.68-1.52-1.52v-.44h-5.67v11.75c0,5.92,4.82,10.74,10.74,10.74s10.74-4.82,10.74-10.74V7.5h-5.63v.44c0,.84-.68,1.52-1.52,1.52s-1.52-.68-1.52-1.52V1.85c0-.84.69-1.52,1.52-1.52.42,0,.8.17,1.07.45s.45.66.45,1.07v.84h10.43Z" fill="#055f59" stroke-width="0"/><path d="M15.9,19.83c1.65,0,2.99-1.34,2.99-2.99v-1.03h1.45c1.36,0,2.48,1.11,2.48,2.48s-1.12,2.48-2.48,2.48h-1.96v1.96c0,1.36-1.11,2.48-2.48,2.48s-2.48-1.11-2.48-2.48v-1.96h-1.96c-1.36,0-2.48-1.11-2.48-2.48,0-.68.28-1.3.73-1.75s1.07-.73,1.75-.73h1.45v1.03c0,1.65,1.34,2.99,2.99,2.99Z" fill="#055f59" stroke-width="0"/><rect x="13.89" y="11.33" width="4.01" height="7.29" rx="2" ry="2" fill="#055f59" stroke-width="0"/></svg>