<svg width="100" height="30" viewBox="0 0 100 30" fill="none" xmlns="http://www.w3.org/2000/svg">
<g opacity="0.32">
<path d="M12.8792 18.9225C16.2502 18.9225 17.8961 21.6012 19.4924 24.1994C21.0093 26.6667 22.447 28.993 25.2627 28.993C28.0785 28.993 29.5162 26.6667 31.0331 24.1994C32.6294 21.6113 34.2752 18.9225 37.6363 18.9225C41.0073 18.9225 42.6532 21.6012 44.2495 24.1994C45.7664 26.6667 47.1941 28.993 50.0198 28.993C52.8356 28.993 54.2732 26.6667 55.7902 24.1994C57.3865 21.6113 59.0323 18.9225 62.3934 18.9225C65.7644 18.9225 67.4103 21.6012 68.9966 24.1994C70.5136 26.6667 71.9413 28.993 74.7571 28.993C77.5729 28.993 79.0105 26.6667 80.5275 24.1994C82.1237 21.6113 83.7696 18.9225 87.1307 18.9225C90.5017 18.9225 92.1475 21.6012 93.7339 24.1994C95.2508 26.6667 96.6786 28.993 99.5043 28.993C99.7819 28.993 100 29.2145 100 29.4965C100 29.7785 99.7819 30 99.5043 30C96.1333 30 94.4874 27.3213 92.9011 24.7231C91.3841 22.2558 89.9564 19.9295 87.1307 19.9295C84.305 19.9295 82.8773 22.2558 81.3603 24.7231C79.764 27.3112 78.1182 30 74.7571 30C71.3861 30 69.7402 27.3213 68.1539 24.7231C66.6369 22.2558 65.2092 19.9295 62.3934 19.9295C59.5776 19.9295 58.14 22.2558 56.623 24.7231C55.0268 27.3112 53.3809 30 50.0198 30C46.6488 30 45.003 27.3213 43.4067 24.7231C41.8897 22.2558 40.462 19.9295 37.6363 19.9295C34.8205 19.9295 33.3829 22.2558 31.866 24.7231C30.2697 27.3112 28.6238 30 25.2627 30C21.8917 30 20.2459 27.3213 18.6496 24.7231C17.1327 22.2558 15.695 19.9295 12.8792 19.9295C10.0635 19.9295 8.62582 22.2558 7.10886 24.7231C5.51259 27.3112 3.86675 30 0.495737 30C0.218124 30 -1.23255e-08 29.7785 0 29.4965C1.23255e-08 29.2145 0.218124 28.993 0.495737 28.993C3.32144 28.993 4.74916 26.6667 6.26611 24.1994C7.86238 21.6012 9.50823 18.9225 12.8792 18.9225Z" fill="white"/>
<path d="M12.8792 9.45619C16.2502 9.4562 17.8961 12.1349 19.4924 14.7331C21.0093 17.2004 22.447 19.5267 25.2627 19.5267C28.0785 19.5267 29.5162 17.2004 31.0331 14.7331C32.6294 12.145 34.2752 9.4562 37.6363 9.4562C41.0073 9.4562 42.6532 12.1349 44.2495 14.7331C45.7664 17.2004 47.1941 19.5267 50.0198 19.5267C52.8356 19.5267 54.2732 17.2004 55.7902 14.7331C57.3865 12.145 59.0323 9.4562 62.3934 9.4562C65.7644 9.4562 67.4103 12.1349 68.9966 14.7331C70.5136 17.2004 71.9413 19.5267 74.7571 19.5267C77.5729 19.5267 79.0105 17.2004 80.5275 14.7331C82.1237 12.145 83.7696 9.4562 87.1307 9.4562C90.5017 9.4562 92.1475 12.1349 93.7339 14.7331C95.2508 17.2004 96.6786 19.5267 99.5043 19.5267C99.7819 19.5267 100 19.7482 100 20.0302C100 20.3122 99.7819 20.5337 99.5043 20.5337C96.1333 20.5337 94.4874 17.855 92.9011 15.2568C91.3841 12.7895 89.9564 10.4632 87.1307 10.4632C84.305 10.4632 82.8773 12.7895 81.3603 15.2568C79.764 17.8449 78.1182 20.5337 74.7571 20.5337C71.3861 20.5337 69.7402 17.855 68.1539 15.2568C66.6369 12.7895 65.2092 10.4632 62.3934 10.4632C59.5776 10.4632 58.14 12.7895 56.623 15.2568C55.0268 17.8449 53.3809 20.5337 50.0198 20.5337C46.6488 20.5337 45.003 17.855 43.4067 15.2568C41.8897 12.7895 40.462 10.4632 37.6363 10.4632C34.8205 10.4632 33.3829 12.7895 31.866 15.2568C30.2697 17.8449 28.6238 20.5337 25.2627 20.5337C21.8917 20.5337 20.2459 17.855 18.6496 15.2568C17.1327 12.7895 15.695 10.4632 12.8792 10.4632C10.0635 10.4632 8.62582 12.7895 7.10886 15.2568C5.51259 17.8449 3.86675 20.5337 0.495737 20.5337C0.218125 20.5337 4.01458e-07 20.3122 4.13784e-07 20.0302C4.26109e-07 19.7482 0.218125 19.5267 0.495737 19.5267C3.32144 19.5267 4.74916 17.2004 6.26611 14.7331C7.86238 12.1349 9.50823 9.45619 12.8792 9.45619Z" fill="white"/>
<path d="M12.8792 0C16.2502 1.47352e-07 17.8961 2.67875 19.4924 5.27694C21.0093 7.74421 22.437 10.0705 25.2627 10.0705C28.0785 10.0705 29.5162 7.74421 31.0331 5.27694C32.6195 2.67875 34.2653 9.34815e-07 37.6363 1.08217e-06C41.0073 1.22952e-06 42.6532 2.67875 44.2495 5.27694C45.7565 7.74421 47.1941 10.0705 50.0099 10.0705C52.8257 10.0705 54.2633 7.74421 55.7803 5.27694C57.3666 2.67875 59.0224 2.01698e-06 62.3835 2.1639e-06C65.7545 2.31125e-06 67.4004 2.67875 68.9867 5.27694C70.5037 7.74421 71.9413 10.0705 74.7571 10.0705C77.5729 10.0705 79.0105 7.74421 80.5275 5.27694C82.1138 2.67875 83.7597 3.09828e-06 87.1307 3.24563e-06C90.5017 3.39299e-06 92.1475 2.67875 93.7339 5.27694C95.2508 7.74421 96.6885 10.0705 99.5043 10.0705C99.7819 10.0705 100 10.292 100 10.574C100 10.856 99.7819 11.0775 99.5043 11.0775C96.1333 11.0775 94.4874 8.3988 92.9011 5.80061C91.3841 3.33334 89.9465 1.00705 87.1307 1.00705C84.3149 1.00705 82.8773 3.33334 81.3603 5.80061C79.7739 8.3988 78.1281 11.0775 74.7571 11.0775C71.3861 11.0775 69.7402 8.39879 68.1539 5.80061C66.6369 3.33334 65.1993 1.00705 62.3835 1.00705C59.5677 1.00705 58.1301 3.33334 56.6131 5.80061C55.0268 8.39879 53.3809 11.0775 50.0099 11.0775C46.6389 11.0775 44.9931 8.39879 43.3968 5.80061C41.8898 3.33333 40.4521 1.00705 37.6363 1.00705C34.8205 1.00705 33.3829 3.33333 31.866 5.80061C30.2796 8.39879 28.6338 11.0775 25.2627 11.0775C21.8917 11.0775 20.2459 8.39879 18.6496 5.80061C17.1327 3.33333 15.695 1.00705 12.8792 1.00705C10.0635 1.00705 8.62582 3.33333 7.10886 5.8006C5.51259 8.39879 3.86675 11.0775 0.495737 11.0775C0.218125 11.0775 8.14802e-07 10.856 8.27127e-07 10.574C8.39453e-07 10.292 0.218125 10.0705 0.495737 10.0705C3.32144 10.0705 4.74916 7.74421 6.26611 5.27694C7.86238 2.67875 9.50823 -1.47352e-07 12.8792 0Z" fill="white"/>
</g>
</svg>
