<svg width="533" height="467" viewBox="0 0 533 467" fill="none" xmlns="http://www.w3.org/2000/svg">
<g opacity="0.08">
<path d="M340.801 167.188C340.801 183.982 327.18 197.596 310.377 197.596C327.18 197.596 340.801 211.21 340.801 228.004C340.801 211.21 354.422 197.596 371.224 197.596C354.422 197.596 340.801 183.982 340.801 167.188Z" fill="#F2F2F2"/>
<path d="M25.7903 412.656C25.7903 426.884 14.2349 438.433 0 438.433C14.2349 438.433 25.7903 449.983 25.7903 464.21C25.7903 449.983 37.3457 438.433 51.5806 438.433C37.3178 438.433 25.7903 426.912 25.7903 412.656Z" fill="#F2F2F2"/>
<path d="M475 438.712C475 446.523 468.664 452.856 460.848 452.856C468.664 452.856 475 459.189 475 467C475 459.189 481.336 452.856 489.151 452.856C481.308 452.856 475 446.523 475 438.712Z" fill="#F2F2F2"/>
<path d="M285.284 0C285.284 7.81123 278.949 14.1439 271.133 14.1439C278.949 14.1439 285.284 20.4766 285.284 28.2878C285.284 20.4766 291.62 14.1439 299.436 14.1439C291.62 14.1439 285.284 7.81123 285.284 0Z" fill="#F2F2F2"/>
<path d="M518.849 64.9448C518.849 72.756 512.513 79.0887 504.698 79.0887C512.513 79.0887 518.849 85.4214 518.849 93.2326C518.849 85.4214 525.185 79.0887 533 79.0887C525.185 79.0608 518.849 72.756 518.849 64.9448Z" fill="#F2F2F2"/>
</g>
</svg>
