<svg width="24" height="24" xmlns="http://www.w3.org/2000/svg" viewBox="0 0 21.18 23.48"><path d="M21.18,1.61v11.28c0,5.84-4.75,10.59-10.59,10.59S0,18.73,0,12.89V1.61h7.14v-.58c0-.57.46-1.04,1.04-1.04.29,0,.54.12.73.3s.3.45.3.73v4.14c0,.57-.46,1.04-1.04,1.04s-1.04-.46-1.04-1.04v-.3h-3.86v8.01c0,4.04,3.28,7.32,7.32,7.32s7.32-3.28,7.32-7.32V4.88h-3.84v.3c0,.57-.46,1.04-1.04,1.04s-1.04-.46-1.04-1.04V1.04c0-.57.47-1.04,1.04-1.04.29,0,.55.12.73.3s.3.45.3.73v.58h7.11Z" fill="#055f59" stroke-width="0"/><path d="M10.61,13.29c1.12,0,2.03-.91,2.03-2.03v-.7h.99c.93,0,1.69.76,1.69,1.69s-.76,1.69-1.69,1.69h-1.33v1.33c0,.93-.76,1.69-1.69,1.69s-1.69-.76-1.69-1.69v-1.33h-1.33c-.93,0-1.69-.76-1.69-1.69,0-.46.19-.89.5-1.19s.73-.49,1.19-.49h.99v.7c0,1.12.91,2.03,2.03,2.03Z" fill="#055f59" stroke-width="0"/><rect x="9.25" y="7.49" width="2.73" height="4.97" rx="1.37" ry="1.37" fill="#055f59" stroke-width="0"/></svg>