<svg width="50" height="50" xmlns="http://www.w3.org/2000/svg" viewBox="0 0 44.82 49.69"><path d="M44.82,3.41v23.87c0,12.36-10.05,22.41-22.41,22.41S0,39.64,0,27.28V3.41h15.1v-1.22c0-1.21.98-2.19,2.19-2.19.6,0,1.15.24,1.55.64s.64.95.64,1.55v8.77c0,1.21-.98,2.19-2.19,2.19s-2.19-.98-2.19-2.19v-.63H6.92v16.95c0,8.54,6.95,15.49,15.49,15.49s15.49-6.95,15.49-15.49V10.33h-8.13v.63c0,1.21-.98,2.19-2.19,2.19s-2.19-.98-2.19-2.19V2.19c0-1.21.99-2.19,2.19-2.19.6,0,1.15.24,1.55.64s.64.95.64,1.55v1.22h15.05Z" fill="#055f59" stroke-width="0"/><path d="M22.46,28.13c2.37,0,4.31-1.93,4.31-4.31v-1.48h2.09c1.96,0,3.58,1.61,3.58,3.58s-1.61,3.58-3.58,3.58h-2.82v2.82c0,1.97-1.61,3.58-3.58,3.58s-3.58-1.61-3.58-3.58v-2.82h-2.82c-1.97,0-3.58-1.61-3.58-3.58,0-.98.4-1.88,1.05-2.53s1.54-1.05,2.52-1.05h2.09v1.48c0,2.37,1.93,4.31,4.31,4.31Z" fill="#055f59" stroke-width="0"/><rect x="19.57" y="15.86" width="5.78" height="10.52" rx="2" ry="2" fill="#055f59" stroke-width="0"/></svg>